<svg width="111" height="49" viewBox="0 0 111 49" fill="none" xmlns="http://www.w3.org/2000/svg">
<path d="M11.321 33V15.5455H18.5312C19.8381 15.5455 20.9659 15.8011 21.9148 16.3125C22.8693 16.8182 23.6051 17.5256 24.1222 18.4347C24.6392 19.3381 24.8977 20.3892 24.8977 21.5881C24.8977 22.7926 24.6335 23.8466 24.1051 24.75C23.5824 25.6477 22.8352 26.3437 21.8636 26.8381C20.892 27.3324 19.7386 27.5795 18.4034 27.5795H13.9545V24.2557H17.6193C18.2557 24.2557 18.7869 24.1449 19.2131 23.9233C19.6449 23.7017 19.9716 23.392 20.1932 22.9943C20.4148 22.5909 20.5256 22.1222 20.5256 21.5881C20.5256 21.0483 20.4148 20.5824 20.1932 20.1903C19.9716 19.7926 19.6449 19.4858 19.2131 19.2699C18.7813 19.054 18.25 18.946 17.6193 18.946H15.5398V33H11.321ZM43.4517 24.2727C43.4517 26.1932 43.0824 27.821 42.3438 29.1562C41.6051 30.4915 40.6051 31.5057 39.3438 32.1989C38.0881 32.892 36.679 33.2386 35.1165 33.2386C33.5483 33.2386 32.1364 32.8892 30.8807 32.1903C29.625 31.4915 28.6278 30.4773 27.8892 29.1477C27.1562 27.8125 26.7898 26.1875 26.7898 24.2727C26.7898 22.3523 27.1562 20.7244 27.8892 19.3892C28.6278 18.054 29.625 17.0398 30.8807 16.3466C32.1364 15.6534 33.5483 15.3068 35.1165 15.3068C36.679 15.3068 38.0881 15.6534 39.3438 16.3466C40.6051 17.0398 41.6051 18.054 42.3438 19.3892C43.0824 20.7244 43.4517 22.3523 43.4517 24.2727ZM39.1392 24.2727C39.1392 23.1364 38.9773 22.1761 38.6534 21.392C38.3352 20.608 37.875 20.0142 37.2727 19.6108C36.6761 19.2074 35.9574 19.0057 35.1165 19.0057C34.2813 19.0057 33.5625 19.2074 32.9602 19.6108C32.358 20.0142 31.8949 20.608 31.571 21.392C31.2528 22.1761 31.0938 23.1364 31.0938 24.2727C31.0938 25.4091 31.2528 26.3693 31.571 27.1534C31.8949 27.9375 32.358 28.5312 32.9602 28.9347C33.5625 29.3381 34.2813 29.5398 35.1165 29.5398C35.9574 29.5398 36.6761 29.3381 37.2727 28.9347C37.875 28.5312 38.3352 27.9375 38.6534 27.1534C38.9773 26.3693 39.1392 25.4091 39.1392 24.2727ZM52.3665 33H45.9148V15.5455H52.358C54.1364 15.5455 55.6676 15.8949 56.9517 16.5938C58.2415 17.2869 59.2358 18.2869 59.9347 19.5938C60.6335 20.8949 60.983 22.4517 60.983 24.2642C60.983 26.0824 60.6335 27.6449 59.9347 28.9517C59.2415 30.2585 58.25 31.2614 56.9602 31.9602C55.6705 32.6534 54.1392 33 52.3665 33ZM50.1335 29.4034H52.2045C53.1818 29.4034 54.0085 29.2386 54.6847 28.9091C55.3665 28.5739 55.8807 28.0312 56.2273 27.2812C56.5795 26.5256 56.7557 25.5199 56.7557 24.2642C56.7557 23.0085 56.5795 22.0085 56.2273 21.2642C55.875 20.5142 55.3551 19.9744 54.6676 19.6449C53.9858 19.3097 53.1449 19.142 52.1449 19.142H50.1335V29.4034ZM67.6648 15.5455V33H63.446V15.5455H67.6648ZM70.3132 33V15.5455H82.228V18.9716H74.532V22.5511H81.4695V25.9858H74.532V33H70.3132ZM83.483 15.5455H88.196L91.8864 22.8494H92.0398L95.7301 15.5455H100.443L94.0597 27.1705V33H89.8665V27.1705L83.483 15.5455Z" fill="black"/>
</svg>
